<svg width="64" height="43" viewBox="0 0 64 43" fill="none" xmlns="http://www.w3.org/2000/svg">
<g filter="url(#filter0_d_53_102)">
<path d="M45.5717 14.2083H40.1148L38.5981 10.4167C37.0395 6.51836 33.3199 4 29.1208 4H17.5452C13.3471 4 9.62649 6.51836 8.06699 10.4167L6.55032 14.2083H1.09433C0.382481 14.2083 -0.139785 14.8773 0.0333925 15.5673L0.580267 17.7548C0.701491 18.2415 1.13899 18.5833 1.6412 18.5833H3.4705C2.24641 19.6525 1.458 21.2065 1.458 22.9583V27.3333C1.458 28.8026 2.01946 30.1288 2.91634 31.1551V36.0833C2.91634 37.6939 4.22246 39 5.833 39H8.74967C10.3602 39 11.6663 37.6939 11.6663 36.0833V33.1667H34.9997V36.0833C34.9997 37.6939 36.3058 39 37.9163 39H40.833C42.4436 39 43.7497 37.6939 43.7497 36.0833V31.1551C44.6465 30.1297 45.208 28.8035 45.208 27.3333V22.9583C45.208 21.2065 44.4196 19.6525 43.1964 18.5833H45.0257C45.5279 18.5833 45.9654 18.2415 46.0867 17.7548L46.6335 15.5673C46.8058 14.8773 46.2835 14.2083 45.5717 14.2083ZM13.4829 12.5832C14.1473 10.9225 15.7561 9.83333 17.5452 9.83333H29.1208C30.91 9.83333 32.5187 10.9225 33.1831 12.5832L34.9997 17.125H11.6663L13.4829 12.5832ZM8.74967 27.3151C6.99967 27.3151 5.833 26.1521 5.833 24.4076C5.833 22.663 6.99967 21.5 8.74967 21.5C10.4997 21.5 13.1247 24.1168 13.1247 25.8613C13.1247 27.6059 10.4997 27.3151 8.74967 27.3151ZM37.9163 27.3151C36.1663 27.3151 33.5413 27.6059 33.5413 25.8613C33.5413 24.1168 36.1663 21.5 37.9163 21.5C39.6663 21.5 40.833 22.663 40.833 24.4076C40.833 26.1521 39.6663 27.3151 37.9163 27.3151Z" fill="#949496"/>
</g>
<defs>
<filter id="filter0_d_53_102" x="0" y="0" width="63.6666" height="43" filterUnits="userSpaceOnUse" color-interpolation-filters="sRGB">
<feFlood flood-opacity="0" result="BackgroundImageFix"/>
<feColorMatrix in="SourceAlpha" type="matrix" values="0 0 0 0 0 0 0 0 0 0 0 0 0 0 0 0 0 0 127 0" result="hardAlpha"/>
<feOffset dx="13"/>
<feGaussianBlur stdDeviation="2"/>
<feComposite in2="hardAlpha" operator="out"/>
<feColorMatrix type="matrix" values="0 0 0 0 0 0 0 0 0 0 0 0 0 0 0 0 0 0 0.25 0"/>
<feBlend mode="normal" in2="BackgroundImageFix" result="effect1_dropShadow_53_102"/>
<feBlend mode="normal" in="SourceGraphic" in2="effect1_dropShadow_53_102" result="shape"/>
</filter>
</defs>
</svg>
