<svg width="57" height="43" viewBox="0 0 57 43" fill="none" xmlns="http://www.w3.org/2000/svg">
<g filter="url(#filter0_d_53_118)">
<path d="M36.102 24.598L39.3335 10.3792C39.5668 9.35261 38.7865 8.375 37.7337 8.375H10.8834L10.2568 5.31182C10.1006 4.54831 9.42881 4 8.64944 4H1.64062C0.734521 4 0 4.73452 0 5.64062V6.73438C0 7.64048 0.734521 8.375 1.64062 8.375H6.41778L11.2199 31.852C10.071 32.5127 9.29688 33.7515 9.29688 35.1719C9.29688 37.2861 11.0108 39 13.125 39C15.2392 39 16.9531 37.2861 16.9531 35.1719C16.9531 34.1004 16.5124 33.1324 15.803 32.4375H30.1344C29.4251 33.1324 28.9844 34.1004 28.9844 35.1719C28.9844 37.2861 30.6983 39 32.8125 39C34.9267 39 36.6406 37.2861 36.6406 35.1719C36.6406 33.6562 35.7596 32.3464 34.4819 31.7262L34.859 30.0667C35.0924 29.0401 34.312 28.0625 33.2592 28.0625H14.9103L14.4629 25.875H34.5021C35.2682 25.875 35.9322 25.3449 36.102 24.598Z" fill="#949496"/>
</g>
<defs>
<filter id="filter0_d_53_118" x="0" y="0" width="56.375" height="43" filterUnits="userSpaceOnUse" color-interpolation-filters="sRGB">
<feFlood flood-opacity="0" result="BackgroundImageFix"/>
<feColorMatrix in="SourceAlpha" type="matrix" values="0 0 0 0 0 0 0 0 0 0 0 0 0 0 0 0 0 0 127 0" result="hardAlpha"/>
<feOffset dx="13"/>
<feGaussianBlur stdDeviation="2"/>
<feComposite in2="hardAlpha" operator="out"/>
<feColorMatrix type="matrix" values="0 0 0 0 0 0 0 0 0 0 0 0 0 0 0 0 0 0 0.25 0"/>
<feBlend mode="normal" in2="BackgroundImageFix" result="effect1_dropShadow_53_118"/>
<feBlend mode="normal" in="SourceGraphic" in2="effect1_dropShadow_53_118" result="shape"/>
</filter>
</defs>
</svg>
