<svg width="25" height="20" viewBox="0 0 25 20" fill="none" xmlns="http://www.w3.org/2000/svg">
<path d="M24.5264 7.07825C24.7168 6.92683 25 7.06848 25 7.30782V17.2965C25 18.5909 23.9502 19.6411 22.6562 19.6411H2.34375C1.0498 19.6411 0 18.5909 0 17.2965V7.31271C0 7.06848 0.27832 6.93172 0.473633 7.08314C1.56738 7.93303 3.01758 9.0125 7.99805 12.6319C9.02832 13.3841 10.7666 14.9666 12.5 14.9569C14.2432 14.9715 16.0156 13.3548 17.0068 12.6319C21.9873 9.0125 23.4326 7.92815 24.5264 7.07825ZM12.5 13.389C13.6328 13.4085 15.2637 11.9627 16.084 11.3668C22.5635 6.66307 23.0566 6.25278 24.5508 5.08051C24.834 4.86071 25 4.5188 25 4.15735V3.2293C25 1.93492 23.9502 0.884766 22.6562 0.884766H2.34375C1.0498 0.884766 0 1.93492 0 3.2293V4.15735C0 4.5188 0.166016 4.85583 0.449219 5.08051C1.94336 6.2479 2.43652 6.66307 8.91602 11.3668C9.73633 11.9627 11.3672 13.4085 12.5 13.389Z" fill="#949496"/>
</svg>
