<svg width="25" height="17" viewBox="0 0 25 17" fill="none" xmlns="http://www.w3.org/2000/svg">
<path d="M24.8489 7.86628C22.4952 3.27383 17.8355 0.166626 12.5 0.166626C7.16447 0.166626 2.50345 3.276 0.151018 7.86671C0.0517306 8.06311 0 8.2801 0 8.50018C0 8.72025 0.0517306 8.93724 0.151018 9.13364C2.50475 13.7261 7.16447 16.8333 12.5 16.8333C17.8355 16.8333 22.4965 13.7239 24.8489 9.13321C24.9482 8.9368 25 8.71981 25 8.49974C25 8.27967 24.9482 8.06268 24.8489 7.86628ZM12.5 14.75C11.2638 14.75 10.0555 14.3834 9.02766 13.6966C7.99985 13.0099 7.19878 12.0338 6.72573 10.8917C6.25268 9.74969 6.12891 8.49303 6.37007 7.28064C6.61123 6.06826 7.20648 4.95462 8.08056 4.08054C8.95464 3.20646 10.0683 2.61121 11.2807 2.37005C12.493 2.12889 13.7497 2.25266 14.8917 2.72571C16.0338 3.19876 17.0099 3.99984 17.6967 5.02764C18.3834 6.05545 18.75 7.26383 18.75 8.49996C18.7504 9.32083 18.589 10.1337 18.275 10.8922C17.9611 11.6507 17.5007 12.3398 16.9203 12.9203C16.3398 13.5007 15.6507 13.9611 14.8922 14.275C14.1338 14.589 13.3209 14.7504 12.5 14.75ZM12.5 4.33329C12.1281 4.33849 11.7586 4.39382 11.4015 4.49779C11.6958 4.89782 11.8371 5.3901 11.7996 5.88535C11.7621 6.3806 11.5484 6.84603 11.1972 7.19722C10.846 7.54842 10.3806 7.76213 9.88537 7.79959C9.39012 7.83706 8.89784 7.6958 8.49781 7.40143C8.27001 8.24067 8.31113 9.1302 8.61538 9.94484C8.91962 10.7595 9.47167 11.4582 10.1938 11.9426C10.916 12.4271 11.7719 12.6729 12.641 12.6454C13.5102 12.618 14.3489 12.3187 15.039 11.7896C15.7291 11.2605 16.236 10.5283 16.4882 9.69613C16.7404 8.86392 16.7253 7.97356 16.445 7.15038C16.1647 6.3272 15.6333 5.61265 14.9256 5.1073C14.2179 4.60195 13.3696 4.33125 12.5 4.33329Z" fill="#FF73C7"/>
</svg>
