<svg width="25" height="26" viewBox="0 0 25 26" fill="none" xmlns="http://www.w3.org/2000/svg">
<path d="M24.2866 18.5402L18.8179 16.1956C18.5843 16.096 18.3246 16.075 18.078 16.1358C17.8315 16.1966 17.6113 16.3359 17.4507 16.5327L15.0288 19.4926C11.2279 17.6999 8.16904 14.6401 6.37695 10.8379L9.33594 8.41518C9.53305 8.25481 9.67256 8.03457 9.73335 7.7878C9.79414 7.54102 9.7729 7.28115 9.67285 7.04753L7.3291 1.57694C7.21929 1.32511 7.02508 1.11949 6.77996 0.995547C6.53483 0.871605 6.25416 0.837108 5.98633 0.898005L0.908203 2.07027C0.649985 2.12992 0.419602 2.27536 0.254656 2.48286C0.0897096 2.69035 -5.94829e-05 2.94764 2.95713e-08 3.21275C2.95713e-08 15.7414 10.1514 25.8766 22.6562 25.8766C22.9213 25.8768 23.1787 25.787 23.3862 25.622C23.5937 25.457 23.7392 25.2265 23.7988 24.9681L24.9707 19.8883C25.0312 19.619 24.996 19.3372 24.8711 19.0911C24.7463 18.8451 24.5396 18.6502 24.2866 18.5402Z" fill="#949496"/>
</svg>
